<svg width="428" height="429" viewBox="0 0 428 429" fill="none" xmlns="http://www.w3.org/2000/svg">
<ellipse cx="214" cy="214.5" rx="214" ry="214.5" fill="white"/>
<path d="M299.141 95C292.82 95 286.804 97.2969 282.318 101.422L202.03 175.25C196.678 180.172 191.937 185.609 187.91 191.469L150.646 245.75C146.925 251.141 142.592 256.156 137.647 260.703L118.633 278.141L144.784 302.188L163.798 284.703C168.692 280.203 174.146 276.172 180.059 272.75L239.09 238.484C245.462 234.781 251.376 230.422 256.728 225.5L337.016 151.719C341.451 147.641 344 142.062 344 136.25C344 130.438 341.502 124.906 337.016 120.781L315.963 101.422C311.477 97.2969 305.462 95 299.141 95ZM344 297.5C344 287.554 339.703 278.016 332.055 270.983C324.407 263.951 314.035 260 303.219 260C292.403 260 282.03 263.951 274.382 270.983C266.734 278.016 262.437 287.554 262.437 297.5C262.437 307.446 266.734 316.984 274.382 324.017C282.03 331.049 292.403 335 303.219 335C314.035 335 324.407 331.049 332.055 324.017C339.703 316.984 344 307.446 344 297.5ZM90.6465 282.031C85.8547 286.437 85.8547 293.562 90.6465 297.922L123.271 327.922C128.063 332.328 135.812 332.328 140.553 327.922C145.293 323.516 145.344 316.391 140.553 312.031L107.979 282.031C103.187 277.625 95.4383 277.625 90.6975 282.031H90.6465Z" fill="black"/>
</svg>
